<svg xmlns="http://www.w3.org/2000/svg" xmlns:xlink="http://www.w3.org/1999/xlink" width="500" zoomAndPan="magnify" viewBox="0 0 375 374.999991" height="500" preserveAspectRatio="xMidYMid meet" version="1.0"><defs><clipPath id="8a967843f1"><path d="M 16 41.496094 L 356 41.496094 L 356 333.246094 L 16 333.246094 Z M 16 41.496094 " clip-rule="nonzero"/></clipPath></defs><rect x="-37.5" width="450" fill="#ffffff" y="-37.499999" height="449.999989" fill-opacity="1"/><rect x="-37.5" width="450" fill="#ffffff" y="-37.499999" height="449.999989" fill-opacity="1"/><path fill="#000000" d="M 297.296875 288.910156 C 297.296875 288.898438 297.300781 288.882812 297.300781 288.871094 C 297.300781 288.882812 297.296875 288.898438 297.296875 288.910156 " fill-opacity="1" fill-rule="nonzero"/><g clip-path="url(#8a967843f1)"><path fill="#000000" d="M 336.265625 202.269531 C 332.292969 202.855469 328.269531 201.574219 324.320312 201.105469 C 322.234375 200.730469 320.183594 199.828125 318.074219 199.726562 C 317.753906 193.902344 317.613281 188.0625 318.15625 182.070312 C 320.890625 181.375 323.8125 182.949219 326.390625 183.785156 C 330.183594 185.933594 334.03125 186.386719 337.011719 182.585938 C 340.140625 179.679688 339.664062 174.792969 342.222656 171.550781 C 343.472656 170.128906 345.820312 171.394531 347.40625 171.609375 C 350.871094 172.769531 351.386719 177.5 352.019531 180.636719 C 352.816406 190.164062 345.5625 200.03125 336.265625 202.269531 M 305.164062 158.613281 C 303.484375 179.035156 302.371094 199.535156 302.171875 220.03125 C 301.902344 220.886719 301.894531 222.421875 301.929688 222.984375 C 302.164062 233.136719 300.609375 243.234375 300.222656 253.375 C 299.898438 265.25 299.734375 277.203125 297.296875 288.875 C 296.835938 290.71875 296.964844 292.664062 297.367188 294.535156 C 297.324219 294.355469 297.28125 294.160156 297.238281 293.996094 C 296.398438 295.496094 296.820312 297.230469 296.882812 298.855469 C 294.332031 300.148438 291.222656 300.21875 288.390625 300.390625 C 283.902344 300.703125 279.414062 301.164062 274.910156 301.203125 L 275.066406 301.203125 C 274.375 301.207031 273.589844 301.214844 272.867188 301.226562 C 255.914062 301.214844 238.835938 301.121094 222.050781 304.074219 C 222.078125 304.074219 222.101562 304.066406 222.128906 304.066406 C 211.632812 305.347656 201.078125 307.855469 191.574219 312.519531 C 193.246094 311.378906 194.644531 310.425781 195.203125 310.179688 C 203.070312 305.6875 212.214844 304.246094 219.890625 299.332031 C 226.621094 296.5625 234.007812 296.523438 241.15625 295.996094 C 256.429688 293.546875 271.84375 292.355469 287.316406 293.988281 C 290.175781 294.398438 293.355469 294.546875 295.886719 292.988281 C 293.671875 291.539062 291.214844 290.363281 288.519531 290.34375 C 278.097656 289.457031 267.515625 289.164062 257.066406 290.160156 C 249.160156 291.121094 241.300781 291.980469 233.328125 292.148438 C 224.308594 292.128906 216.382812 296.289062 208.234375 299.546875 C 200.296875 302.203125 192.757812 306.058594 186.519531 311.730469 C 184.804688 313.144531 182.738281 314.402344 181.242188 316.097656 C 181.464844 310.617188 181.980469 305.003906 182.085938 299.484375 C 182.144531 295.964844 182.050781 292.441406 181.980469 288.914062 C 185.167969 288.257812 188.464844 287.164062 190.710938 284.851562 C 194.835938 279.605469 189.003906 274.363281 183.832031 273.363281 C 183.734375 273.347656 183.613281 273.339844 183.515625 273.328125 C 184.925781 272.769531 186.335938 272.097656 187.554688 271.238281 C 190.234375 269.515625 190.839844 265.671875 189.628906 262.886719 C 188.066406 259.949219 185.203125 258.800781 182.125 258.328125 C 182.039062 254.394531 181.925781 250.457031 181.78125 246.523438 C 183.101562 246.671875 184.3125 246.882812 185.273438 247.207031 C 187.035156 248.617188 188.371094 250.957031 187.980469 253.320312 C 187.441406 254.902344 186.335938 256.378906 185.695312 257.847656 C 186.691406 257.539062 187.558594 256.945312 188.378906 256.324219 C 192.851562 253.503906 190.75 247.367188 187.496094 244.414062 C 185.898438 242.925781 183.765625 242.554688 181.644531 242.410156 C 181.625 241.898438 181.609375 241.390625 181.589844 240.875 C 181.75 237.234375 181.914062 233.582031 181.886719 229.980469 C 181.710938 221.585938 181.203125 213.140625 180.878906 204.707031 C 183.921875 204.136719 187.257812 202.199219 189.011719 199.570312 C 190.359375 196.972656 188.839844 193.8125 186.949219 191.914062 C 185.082031 190.175781 182.785156 189.515625 180.359375 189.332031 C 180.320312 185.070312 180.386719 180.800781 180.464844 176.523438 C 183.4375 176.839844 186.175781 177.796875 188.199219 179.84375 C 188.839844 180.453125 189.371094 181.242188 189.378906 182.15625 C 189.09375 182.863281 188.648438 183.515625 188.105469 184.046875 C 186.105469 185.792969 184.089844 187.566406 181.941406 189.128906 C 185.742188 188.542969 190.683594 187.164062 192.679688 183.449219 C 194.320312 178.652344 188.882812 174.773438 184.910156 173.382812 C 183.480469 172.933594 182.011719 172.691406 180.53125 172.558594 C 180.601562 168.765625 180.664062 164.96875 180.65625 161.175781 C 180.570312 159.542969 180.464844 157.921875 180.378906 156.292969 C 184.070312 157.210938 186.25 161.476562 186.175781 165.160156 C 185.386719 166.875 183.976562 168.390625 183.238281 170.089844 C 185.078125 169.652344 186.875 168.890625 188.246094 167.578125 C 189.898438 166.195312 189.4375 163.914062 189.089844 162.050781 C 188.359375 157.691406 184.984375 153.261719 180.4375 152.539062 C 180.359375 152.519531 180.253906 152.519531 180.167969 152.503906 C 179.851562 147.195312 179.457031 141.898438 178.621094 136.570312 C 178.410156 135.125 178.152344 133.683594 178.035156 132.226562 C 178.007812 132.011719 177.96875 131.785156 177.894531 131.574219 C 190.835938 118.664062 208.636719 111.753906 225.382812 104.945312 C 239.046875 99.894531 253.292969 96.382812 267.660156 93.820312 C 275.25 92.46875 283.386719 92.800781 291.222656 92.96875 C 292.933594 92.949219 294.71875 92.96875 296.5 93.101562 C 295.828125 93.242188 295.195312 93.492188 294.667969 94.019531 C 294.621094 94.0625 294.484375 94.1875 294.527344 94.261719 C 294.550781 94.300781 294.648438 94.292969 294.648438 94.242188 C 294.871094 94.183594 295.1875 94.222656 295.386719 94.230469 C 297.507812 94.773438 299.382812 95.375 301.453125 96.324219 C 302.699219 96.6875 303.71875 97.59375 304.003906 98.90625 C 304.914062 101.890625 305.355469 104.953125 305.5 108.0625 C 306.113281 114.65625 306.789062 121.210938 307.230469 127.847656 C 307.308594 138.011719 306.164062 148.453125 305.164062 158.613281 M 187.75 283.480469 C 186.078125 285.167969 184.003906 286.351562 181.960938 287.570312 C 181.894531 284.238281 181.914062 280.90625 181.992188 277.570312 C 186.269531 278.039062 189.714844 279.546875 187.75 283.480469 M 182.050781 273.171875 C 182.179688 269.75 182.222656 266.332031 182.199219 262.917969 C 183.996094 263.097656 185.675781 263.597656 186.355469 265.324219 C 186.664062 267.097656 186.296875 268.65625 185.0625 270.027344 C 184.160156 271.082031 183.25 272.136719 182.367188 273.203125 C 182.261719 273.191406 182.15625 273.183594 182.050781 273.171875 M 168.980469 273.882812 C 168.84375 270.613281 168.71875 267.347656 168.664062 264.078125 L 168.664062 263.875 C 171.847656 262.894531 175.300781 262.582031 178.460938 262.742188 C 178.746094 262.761719 179.085938 262.761719 179.398438 262.761719 C 179.246094 266.160156 179.09375 269.554688 178.890625 272.945312 C 175.617188 272.835938 172.191406 273.058594 168.980469 273.882812 M 180.097656 246.402344 C 180.109375 246.542969 180.128906 246.671875 180.140625 246.804688 C 179.992188 250.558594 179.78125 254.300781 179.628906 258.058594 C 178.421875 257.984375 177.214844 257.964844 176.089844 257.945312 C 173.449219 257.8125 171.128906 258.367188 168.613281 259.105469 C 168.605469 255.355469 168.664062 251.429688 168.75 247.398438 C 172.585938 246.527344 176.636719 246.207031 180.097656 246.402344 M 168.136719 215.445312 C 168.703125 209.320312 169.566406 203.132812 169.667969 197.015625 C 169.6875 196.394531 169.671875 195.769531 169.6875 195.148438 C 170.4375 194.976562 171.195312 194.8125 171.964844 194.675781 C 173.574219 194.65625 175.410156 194.28125 177.238281 194.042969 C 177.664062 201.960938 178.203125 209.867188 178.757812 217.734375 C 179.324219 225.910156 179.382812 234.136719 179.851562 242.324219 C 179.820312 242.320312 179.78125 242.320312 179.738281 242.320312 C 176.4375 242.054688 172.960938 242.378906 169.621094 243.078125 C 169.355469 243.128906 169.105469 243.222656 168.84375 243.28125 C 169.054688 233.40625 169.179688 223.429688 168.136719 215.445312 M 169.671875 177.660156 C 171.875 177.050781 174.21875 176.597656 176.53125 176.441406 C 176.628906 180.734375 176.789062 185.03125 176.992188 189.339844 C 175.445312 189.429688 173.902344 189.59375 172.441406 189.726562 C 171.664062 189.785156 170.734375 189.957031 169.746094 190.183594 C 169.785156 186.003906 169.765625 181.835938 169.671875 177.660156 M 176.269531 156.050781 C 176.308594 158.660156 176.375 161.273438 176.4375 163.941406 C 176.40625 166.78125 176.464844 169.632812 176.503906 172.480469 C 174.171875 172.605469 171.847656 172.960938 169.574219 173.402344 C 169.402344 168.058594 169.171875 162.722656 168.855469 157.386719 C 171.371094 156.617188 173.976562 156.167969 176.269531 156.050781 M 168 144.59375 C 167.886719 141.734375 167.519531 138.894531 167.03125 136.074219 C 168.164062 137.03125 169.449219 137.503906 170.773438 137.503906 C 172.78125 137.503906 174.8125 136.542969 176.320312 135.101562 C 176.050781 139.242188 176.023438 143.394531 176.308594 147.542969 C 176.261719 149.105469 176.28125 150.648438 176.28125 152.195312 C 173.863281 152.203125 171.214844 152.566406 168.578125 153.25 C 168.394531 150.363281 168.210938 147.480469 168 144.59375 M 180.664062 199.253906 C 180.5625 197.460938 180.542969 195.675781 180.492188 193.890625 C 182.289062 194.003906 183.917969 194.574219 185.097656 196.191406 C 186.355469 197.902344 185.273438 199.214844 184.148438 200.597656 C 183.046875 201.863281 182.046875 203.226562 180.875 204.433594 C 180.808594 202.707031 180.703125 200.972656 180.664062 199.253906 M 78.429688 130.390625 C 78.324219 129.914062 78.234375 129.441406 78.121094 128.96875 C 75.664062 119.730469 73.964844 110.203125 72.246094 100.765625 C 69.703125 84.625 65.539062 68.554688 67.601562 52.074219 C 68.378906 46.644531 69.851562 45.199219 75.453125 45.78125 C 78.488281 47.730469 79.476562 52.535156 80.664062 55.867188 C 84.148438 70.433594 87.082031 85.367188 89.527344 100.191406 C 91.34375 109.652344 92.5625 119.203125 93.28125 128.796875 C 89.109375 131.976562 83.042969 133.089844 78.429688 130.390625 M 69.132812 106.125 C 68.25 104.5 67.671875 102.761719 67.152344 100.988281 C 67.890625 100.890625 68.59375 100.617188 69.214844 100.277344 C 69.675781 103.148438 70.136719 106.027344 70.65625 108.894531 C 69.984375 107.640625 69.371094 106.585938 69.132812 106.125 M 56.742188 89.710938 C 55.363281 81.652344 55.429688 73.484375 57.195312 65.425781 C 57.953125 63.199219 58.601562 60.617188 60.492188 58.988281 C 61.328125 58.21875 62.144531 57.296875 63.332031 57.117188 C 61.089844 60.503906 60.789062 64.65625 60.339844 68.574219 C 59.746094 74.195312 59.160156 79.886719 59.757812 85.527344 C 60.65625 91.75 62.308594 97.863281 64.429688 103.78125 C 65.894531 107.90625 69.609375 110.765625 70.984375 114.921875 C 61.464844 111.363281 58.277344 98.808594 56.742188 89.710938 M 64.054688 58.601562 C 64.042969 59.320312 64.042969 60.042969 64.007812 60.742188 C 63.804688 72.582031 66.425781 84.398438 68.515625 96.019531 C 68.691406 97.246094 68.925781 98.464844 69.121094 99.691406 C 68.390625 99.328125 67.496094 99.230469 66.703125 99.464844 C 66.671875 99.339844 66.625 99.222656 66.597656 99.097656 C 63.738281 90.164062 62.394531 80.5 62.683594 71.039062 C 62.847656 67.179688 62.699219 62.414062 64.054688 58.601562 M 94.03125 179.726562 C 93.730469 179.488281 93.53125 179.542969 93.414062 179.78125 C 93.203125 179.695312 92.984375 179.707031 92.773438 179.6875 C 91.929688 177.742188 91.1875 175.746094 90.257812 173.851562 C 90.644531 174.132812 91.054688 174.410156 91.5625 174.496094 C 91.878906 174.535156 92.1875 174.5625 92.476562 174.5625 C 93.039062 174.5625 93.433594 174.332031 93.894531 174.1875 C 93.894531 176.03125 93.960938 177.875 94.03125 179.726562 M 93.300781 180.789062 C 93.226562 180.628906 93.144531 180.476562 93.070312 180.320312 C 93.144531 180.339844 93.207031 180.351562 93.28125 180.367188 C 93.273438 180.496094 93.289062 180.636719 93.300781 180.789062 M 48.175781 287.777344 C 54.105469 286.332031 60.246094 286.769531 66.289062 286.578125 C 74.320312 285.632812 82.304688 286.984375 90.285156 287.882812 C 102.648438 289.726562 115.609375 290.90625 127.574219 295.089844 C 136.621094 299.035156 145.507812 303.902344 152.789062 310.675781 C 146.757812 308.527344 141.34375 305.128906 135.730469 302.144531 C 130.269531 299.671875 124.410156 298.222656 118.652344 296.628906 C 107.648438 293.929688 96.34375 293.257812 85.03125 293.257812 C 78.898438 293.257812 72.757812 293.453125 66.664062 293.632812 C 58.988281 293.726562 51.523438 295.503906 43.84375 295.511719 C 43.164062 293.976562 42.847656 292.300781 42.695312 290.640625 L 42.683594 290.65625 C 43.171875 287.972656 45.996094 288.238281 48.175781 287.777344 M 354.898438 177.195312 C 353.257812 170.640625 350.4375 167.761719 343.546875 167.453125 C 335.796875 167.683594 337.984375 178.660156 332.328125 181.777344 C 331.199219 182.296875 330.035156 181.671875 328.960938 181.316406 C 327.03125 180.589844 325.054688 180.054688 323.011719 179.785156 C 321.574219 179.484375 319.617188 179.488281 318.179688 180.121094 C 318.195312 179.738281 318.179688 179.363281 318.1875 178.984375 C 318.734375 175.773438 319.167969 172.507812 319.492188 169.316406 C 320.007812 165.121094 319.070312 160.792969 319.644531 156.578125 C 320.640625 148.164062 320.71875 139.691406 319.980469 131.234375 C 319.808594 127.273438 319.292969 123.378906 319.441406 119.402344 C 319.710938 116.292969 319.589844 113.195312 318.351562 110.277344 C 317.667969 108.253906 316.09375 106.585938 314.003906 106.007812 C 312.355469 105.460938 310.585938 104.714844 308.839844 104.445312 C 308.488281 102.425781 308.0625 100.40625 307.414062 98.4375 C 306.789062 95.539062 304.195312 93.746094 301.339844 93.492188 C 300.925781 93.410156 300.476562 93.320312 300.03125 93.234375 C 298.554688 91.746094 296.359375 90.835938 294.390625 90.105469 C 266.207031 84.292969 209.699219 101.746094 187.132812 119.363281 C 183.171875 122.273438 179.378906 125.738281 176.875 130.039062 C 176.53125 130.726562 176.203125 131.445312 176.148438 132.222656 C 176.136719 132.457031 176.15625 132.875 176.425781 132.992188 C 176.398438 133.28125 176.40625 133.566406 176.378906 133.855469 C 175.714844 133.882812 175.050781 133.894531 174.371094 133.96875 C 172.296875 134.199219 170.199219 134.421875 168.316406 133.414062 C 167.730469 133.085938 167.25 132.617188 166.726562 132.214844 C 166.753906 131.660156 166.703125 131.113281 166.417969 130.582031 C 163.96875 126.1875 160.371094 122.871094 156.65625 119.472656 C 143.398438 108.714844 126.949219 101.613281 110.128906 98.859375 C 105.34375 97.707031 100.457031 97.226562 95.554688 97.746094 C 94.414062 97.84375 92.957031 98.140625 91.988281 98.773438 C 91.523438 96.625 91.0625 94.480469 90.585938 92.335938 C 88.378906 79.242188 85.046875 66.363281 82.882812 53.257812 C 82.101562 50.300781 80.988281 46.90625 79.214844 44.253906 C 78.636719 43.277344 77.726562 42.558594 76.617188 42.25 C 73.226562 41.5 68.660156 41.925781 66.445312 44.925781 C 64.402344 48.351562 64.171875 52.34375 64.109375 56.296875 C 64.046875 56.339844 63.976562 56.375 63.921875 56.425781 C 52.796875 54.304688 53.816406 80.492188 54.699219 87.351562 C 55.265625 92.105469 56.292969 97.398438 58.132812 102.265625 C 54.566406 101.863281 50.324219 104.089844 46.964844 105.308594 C 43.28125 106.984375 34.441406 110.402344 33.339844 114.96875 C 33.273438 114.828125 33.1875 114.75 33.058594 114.875 C 32.628906 116.21875 32.496094 117.609375 32.429688 119.019531 C 32.238281 118.945312 32.027344 118.914062 31.792969 118.960938 C 27.667969 120.410156 23.976562 122.976562 20.589844 125.726562 C 17.476562 128.003906 16.28125 131.832031 16.257812 135.566406 C 16.429688 144.039062 16.105469 152.570312 16.414062 161.058594 C 16.355469 164.382812 16.460938 167.722656 16.914062 171.039062 C 17.824219 185.582031 19.539062 199.984375 21.269531 214.464844 C 22.421875 223.042969 23.359375 231.691406 24.226562 240.277344 C 24.714844 246.824219 25.730469 253.011719 25.683594 259.679688 C 25.375 267.265625 25.308594 274.902344 25.855469 282.484375 C 26.113281 290.457031 26.890625 298.453125 29.933594 305.878906 C 30.671875 307.363281 31.167969 309.398438 32.886719 309.976562 C 33.339844 310.003906 33.800781 310.015625 34.257812 310.015625 C 36.378906 310.015625 38.492188 309.738281 40.605469 309.417969 C 41.746094 309.402344 42.898438 309.273438 44.027344 309.160156 C 49.324219 308.796875 54.679688 308.265625 60.023438 307.585938 C 74.292969 307.230469 88.644531 305.597656 102.800781 308.210938 C 113.375 310.386719 124.617188 311.941406 134.082031 317.597656 C 149.359375 330.1875 150.710938 331.445312 170.945312 333.226562 L 170.90625 333.226562 C 171.261719 333.234375 171.601562 333.238281 171.960938 333.238281 C 178.667969 333.238281 185.667969 331.882812 191.585938 328.726562 C 194.695312 327.066406 197.238281 324.535156 200.367188 322.914062 C 201.871094 322.285156 203.390625 321.683594 204.886719 321.066406 C 223.84375 313.039062 245.097656 313.640625 265.324219 313.773438 C 271.753906 313.816406 277.984375 314.695312 284.5625 315.023438 C 290.121094 315.320312 295.878906 317.558594 301.433594 316.003906 C 303.566406 315.328125 306.730469 314.234375 306.402344 311.546875 C 306.03125 312.039062 305.683594 312.519531 305.144531 312.847656 C 304.550781 313.085938 303.839844 313.058594 303.199219 313.144531 C 298.1875 313.835938 293.222656 312.980469 288.257812 312.277344 C 279.152344 311.609375 270 310.464844 260.796875 310.410156 C 248.085938 310.097656 235.367188 310.53125 222.773438 312.367188 C 213.882812 313.632812 205.019531 317.117188 197.925781 322.679688 C 197.910156 322.679688 197.902344 322.679688 197.898438 322.683594 C 194.484375 323.324219 191.710938 325.628906 188.675781 327.179688 C 180.972656 330.308594 172.441406 331.382812 164.191406 329.660156 C 159.144531 329.136719 153.972656 328.734375 149.605469 325.875 C 146.105469 323.996094 143.445312 321.089844 140.257812 318.652344 C 135.378906 313.71875 128.734375 311.328125 122.28125 309.132812 C 107.625 304.910156 92.246094 302.078125 76.929688 303.46875 C 64.613281 303.382812 52.527344 305.050781 40.667969 308.285156 C 38.28125 308.125 35.875 308.019531 33.484375 307.863281 C 27.292969 296.261719 28.601562 282.359375 28.234375 269.59375 C 29.070312 258.628906 28.398438 247.648438 27.140625 236.765625 C 26.269531 225.625 24.734375 214.371094 23.1875 203.273438 C 21.621094 192.179688 20.058594 181 19.160156 169.820312 C 18.398438 166.464844 18.152344 162.949219 17.792969 159.5 C 18.496094 152.777344 19.433594 146.015625 19.414062 139.308594 C 19.503906 136.484375 19.300781 133.519531 20.394531 130.851562 C 22.792969 126.890625 27.007812 124.5 30.632812 121.667969 C 31.167969 121.238281 31.824219 120.863281 32.371094 120.355469 C 32.351562 121.910156 32.378906 123.480469 32.238281 125.015625 C 31.984375 130.929688 31.605469 136.851562 31.71875 142.789062 C 31.71875 142.710938 31.710938 142.648438 31.710938 142.585938 C 31.324219 166.625 34.269531 190.617188 36.84375 214.519531 C 37.195312 225.230469 37.601562 235.929688 38.839844 246.601562 C 39.722656 256.066406 39.242188 265.488281 39.84375 275.023438 C 40.140625 279.410156 38.183594 283.796875 39.308594 288.117188 C 39.597656 289.179688 39.875 290.417969 40.371094 291.496094 C 40.773438 293.71875 40.515625 296.839844 42.847656 298.046875 C 47.203125 298.699219 51.609375 297.597656 55.957031 297.222656 C 68.546875 296.226562 81.242188 296.542969 93.894531 297.128906 C 106.976562 297.296875 119.773438 300.53125 131.972656 305.128906 C 137.199219 307.320312 141.699219 310.875 146.765625 313.394531 C 150.621094 315.351562 154.488281 317.34375 158.414062 319.109375 C 159.769531 319.484375 161.214844 319.503906 162.414062 320.347656 C 162.664062 320.457031 162.992188 320.5625 163.28125 320.5625 C 163.363281 320.5625 163.441406 320.558594 163.511719 320.539062 C 163.394531 320.261719 163.257812 319.945312 163.261719 319.621094 C 168.605469 322.09375 159.15625 312.554688 158.289062 311.578125 C 151.546875 303.371094 142.257812 298.160156 132.949219 293.304688 C 121.730469 288.171875 109.316406 286.550781 97.109375 285.253906 L 97.121094 285.253906 C 85.804688 283.953125 74.261719 282.042969 62.910156 284.207031 C 57.339844 284.019531 51.792969 284.832031 46.351562 285.917969 C 44.976562 285.898438 43.652344 286.328125 42.5625 287.03125 C 42.792969 284.585938 42.925781 282.136719 43.085938 279.691406 C 42.769531 269.640625 43.300781 259.429688 42.769531 249.328125 C 39.949219 217.3125 36.3125 185.347656 34.960938 153.203125 C 34.96875 145.609375 34.402344 137.753906 34.191406 130.105469 C 33.953125 125.460938 34.003906 120.871094 33.609375 116.238281 C 33.582031 116.171875 33.558594 116.027344 33.53125 115.84375 C 33.960938 115.011719 35.257812 114.394531 35.9375 113.753906 C 41.226562 110.410156 47.023438 107.9375 52.816406 105.574219 C 54.753906 104.921875 56.734375 104.300781 58.546875 103.3125 C 61.050781 109.40625 64.972656 114.664062 71.355469 116.902344 C 71.492188 116.925781 71.617188 116.929688 71.738281 116.929688 C 71.949219 116.929688 72.027344 116.8125 72.191406 116.757812 C 73.996094 125.777344 75.992188 134.75 78.003906 143.742188 C 78.929688 147.808594 80.425781 151.886719 81.402344 155.972656 C 82.859375 161.226562 84.3125 166.835938 87.007812 171.625 C 88.4375 172.652344 88.121094 170.648438 87.90625 169.945312 C 86.121094 162.75 85.097656 155.601562 82.785156 148.480469 C 81.25 143.636719 80.25 138.683594 79.167969 133.710938 C 80.960938 134.855469 83.265625 135.476562 85.019531 135.449219 C 85.289062 135.480469 85.59375 135.496094 85.929688 135.496094 C 88.121094 135.496094 91.34375 134.738281 93.597656 133.328125 C 93.769531 136.332031 93.914062 139.34375 93.980469 142.359375 C 94.238281 148.164062 94.335938 154.019531 94.585938 159.859375 C 94.769531 163.84375 95.871094 171.816406 90.289062 172.28125 C 89.914062 172.230469 89.613281 172.117188 89.242188 171.980469 C 89.183594 171.878906 89.144531 171.773438 89.078125 171.675781 C 87.832031 170.21875 88.945312 174.363281 90.402344 178.507812 C 91.679688 182.125 93.226562 185.75 93.710938 185.644531 C 93.945312 185.820312 94.195312 185.894531 94.433594 185.894531 C 95.246094 185.894531 95.980469 185.0625 96.273438 184.300781 C 97.207031 180.9375 95.988281 177.125 94.355469 174.0625 C 99.84375 171.664062 97.734375 158.777344 97.878906 153.941406 C 97.664062 146.535156 97.820312 138.992188 97.101562 131.5625 C 96.464844 120.585938 94.367188 109.796875 92.050781 99.058594 C 95.363281 100.152344 99.007812 99.644531 102.445312 100.097656 C 112.566406 101.6875 122.441406 104.253906 132.015625 108.070312 C 142.984375 112.5625 153.589844 118.367188 161.128906 127.78125 C 162.789062 129.382812 163.644531 131.65625 165.015625 133.445312 C 165.152344 133.84375 165.382812 134.257812 165.640625 134.632812 C 165.277344 141.128906 165.21875 147.710938 165.277344 154.304688 C 160.699219 156.070312 156.78125 158.863281 155.640625 162.691406 C 154.132812 165.804688 155.304688 169.863281 158.511719 171.367188 C 159.007812 171.609375 159.5 171.703125 159.996094 171.703125 C 161.34375 171.703125 162.675781 171.023438 164.015625 170.78125 C 162.839844 170.199219 161.359375 169.851562 160.039062 169.527344 C 157.601562 168.054688 158.144531 164.976562 159.535156 162.925781 C 160.753906 161.234375 162.859375 159.832031 165.3125 158.71875 C 165.34375 161.425781 165.378906 164.132812 165.398438 166.835938 C 165.398438 166.816406 165.390625 166.800781 165.390625 166.78125 C 165.398438 169.332031 165.445312 171.953125 165.46875 174.554688 C 160.277344 176.375 154.210938 179.832031 158.019531 185.496094 C 158.863281 186.863281 161.109375 188.964844 162.609375 187.375 C 162.878906 186.941406 162.828125 186.394531 162.53125 185.984375 C 159.746094 182.679688 160.144531 181.269531 164.058594 179.582031 C 164.507812 179.390625 165.027344 179.214844 165.515625 179.023438 C 165.535156 180.433594 165.546875 181.828125 165.5625 183.230469 C 165.503906 185.964844 165.59375 188.707031 165.71875 191.441406 C 160.753906 193.382812 155.902344 196.863281 157.242188 201.527344 C 158.097656 203.738281 160.757812 205.734375 162.992188 204.160156 L 162.992188 204.167969 C 162.992188 204.160156 163.003906 204.160156 163.011719 204.15625 C 163.011719 204.160156 163.050781 204.136719 163.027344 204.121094 C 162.703125 203.925781 162.425781 203.824219 162.144531 203.550781 C 161.636719 202.824219 161.15625 202.007812 160.734375 201.203125 C 160.167969 200.117188 161.320312 199.285156 162.058594 198.660156 C 163.257812 197.652344 164.582031 196.941406 165.964844 196.355469 C 166.160156 199.675781 166.371094 202.996094 166.464844 206.316406 C 166.496094 209.914062 166.617188 213.621094 166.859375 217.332031 C 166.476562 226.277344 165.929688 235.210938 165.476562 244.152344 C 163.507812 244.757812 161.582031 245.5 159.816406 246.652344 C 157.636719 247.871094 155.546875 249.5 154.558594 251.878906 C 153.492188 254.902344 154.632812 258.722656 157.445312 260.375 C 157.855469 260.667969 158.335938 260.785156 158.828125 260.785156 C 159.222656 260.785156 159.632812 260.707031 160.019531 260.566406 C 160.054688 260.605469 160.027344 260.746094 160.105469 260.707031 C 160.292969 259.699219 158.90625 259.019531 158.425781 258.222656 C 157.476562 256.964844 157.265625 255.257812 157.542969 253.691406 C 158.800781 251.324219 161.746094 249.59375 165.273438 248.375 C 165.105469 252.367188 165.042969 256.363281 165.023438 260.363281 C 162.394531 261.496094 159.871094 263.136719 158.296875 265.515625 C 157.179688 267.082031 156.089844 268.953125 156.191406 270.945312 C 156.363281 273.328125 157.761719 276.167969 160.398438 276.4375 C 160.449219 276.445312 160.507812 276.449219 160.554688 276.449219 C 161.40625 276.449219 162.070312 275.777344 162.769531 275.476562 C 162.769531 275.476562 162.769531 275.46875 162.761719 275.46875 C 162.292969 274.851562 161.042969 274.355469 160.417969 273.632812 C 159.261719 272.003906 159.816406 270.179688 160.984375 268.675781 C 162.097656 267.332031 163.472656 266.304688 164.96875 265.460938 C 164.96875 265.585938 164.960938 265.710938 164.96875 265.839844 C 165.007812 268.90625 165.210938 272.015625 165.382812 275.121094 C 162.050781 276.578125 159.230469 278.84375 157.523438 282.203125 C 156.726562 284.71875 156.390625 287.367188 158.84375 289 C 158.972656 289.402344 159.046875 289.191406 159.097656 288.84375 C 159.828125 289.34375 160.707031 289.660156 161.570312 289.707031 C 161.667969 289.71875 161.78125 289.71875 161.886719 289.71875 C 162.347656 289.71875 162.855469 289.648438 163.164062 289.429688 C 161.871094 288.875 160.816406 287.90625 159.890625 286.828125 C 159.640625 286.292969 159.578125 285.699219 159.585938 285.09375 C 160.398438 282.386719 162.808594 280.632812 165.582031 279.5 C 165.890625 284.441406 166.234375 289.390625 166.410156 294.296875 C 165.878906 303.171875 166.820312 311.945312 166.761719 320.820312 C 168.949219 314.667969 169.417969 308.121094 169.332031 301.480469 C 169.8125 293.785156 169.515625 286.082031 169.171875 278.375 C 170.0625 278.15625 170.9375 277.964844 171.742188 277.828125 C 173.117188 277.636719 175.839844 277.367188 178.6875 277.386719 C 178.316406 286.648438 178.917969 295.886719 178.707031 305.15625 C 178.691406 308.949219 179.46875 312.96875 180.855469 316.539062 C 180.753906 316.671875 180.621094 316.78125 180.53125 316.921875 C 180.371094 316.953125 180.351562 317.164062 180.4375 317.289062 C 180.4375 317.34375 180.433594 317.394531 180.4375 317.441406 L 180.453125 317.414062 C 180.503906 317.929688 180.820312 318.140625 181.335938 318.140625 C 181.683594 318.140625 182.136719 318.027344 182.652344 317.84375 C 182.316406 318.082031 181.96875 318.277344 181.636719 318.527344 C 181.585938 318.488281 181.527344 318.449219 181.460938 318.421875 L 181.441406 318.421875 C 180.378906 319.015625 181.109375 320.300781 181.960938 320.703125 C 182.441406 320.933594 182.914062 321.03125 183.390625 321.03125 C 184.957031 321.03125 186.460938 319.9375 187.726562 319.046875 C 190.523438 316.902344 193.695312 315.367188 196.929688 313.988281 C 206.984375 309.410156 218.050781 308.027344 228.828125 306.078125 C 238.898438 304.449219 249.082031 304.410156 259.222656 303.585938 C 260.367188 303.546875 262.109375 303.546875 264.234375 303.546875 C 274.929688 303.554688 295.328125 303.554688 298.238281 299.488281 C 298.496094 298.816406 298.171875 298.046875 298.015625 297.386719 C 297.871094 296.820312 297.757812 296.214844 297.632812 295.621094 C 300.828125 292.625 301.585938 288.230469 302.191406 284.09375 C 304.492188 274.453125 304.515625 264.433594 304.609375 254.574219 C 304.570312 248.082031 304.917969 241.304688 304.542969 234.550781 C 304.386719 230.46875 303.96875 226.402344 303.46875 222.351562 C 305.933594 200.753906 306.070312 178.730469 308.277344 157.089844 C 309.617188 144.144531 311.726562 130.996094 310.070312 117.964844 C 309.859375 113.792969 309.621094 109.613281 308.996094 105.5 C 310.300781 106.285156 311.578125 107.121094 312.921875 107.859375 C 313.972656 108.386719 315.097656 109.164062 315.65625 110.304688 C 317.339844 113.289062 317.253906 116.773438 316.996094 120.085938 C 316.835938 123.800781 316.960938 127.265625 317.046875 131.074219 C 317.527344 139.957031 317.027344 149.054688 316.171875 157.941406 C 316.160156 165.542969 317.191406 173.183594 317.179688 180.78125 C 316.574219 181.355469 316.210938 182.144531 316.355469 183.265625 C 316.363281 183.296875 316.324219 183.417969 316.390625 183.375 C 316.539062 183.066406 316.871094 182.890625 317.128906 182.664062 C 316.960938 183.605469 316.792969 184.5625 316.625 185.484375 C 315.210938 190.378906 314.820312 195.320312 314.839844 200.28125 C 314.820312 200.292969 314.800781 200.289062 314.78125 200.300781 C 314.800781 200.3125 314.820312 200.335938 314.839844 200.347656 C 314.867188 206.890625 315.613281 213.46875 315.835938 220.058594 C 316.058594 227.910156 315.089844 235.679688 314.253906 243.503906 C 314.015625 253.511719 312.480469 263.367188 311.21875 273.277344 L 311.21875 273.261719 C 311.210938 273.277344 311.210938 273.296875 311.210938 273.308594 L 311.210938 273.320312 C 310.402344 282.292969 307.898438 291.023438 306.652344 299.945312 C 306.144531 302.769531 306.355469 306.242188 305.605469 309.101562 C 304.847656 310.425781 303.464844 311.308594 302.371094 312.394531 C 302.296875 312.355469 302.21875 312.300781 302.164062 312.289062 C 302.039062 312.363281 301.972656 312.652344 302.046875 312.828125 C 302.132812 313.066406 302.34375 313.140625 302.566406 313.140625 C 303.335938 313.039062 304.082031 312.757812 304.808594 312.472656 C 310.25 310.03125 309.148438 303.117188 310.359375 298.230469 C 312.652344 287.050781 314.503906 275.882812 315.710938 264.515625 C 316.960938 256.738281 317.246094 248.835938 317.792969 240.957031 C 318.410156 234.722656 319.339844 228.511719 319.230469 222.210938 C 319.1875 215.550781 318.621094 209.042969 318.207031 202.519531 C 323.160156 205.128906 329.078125 205.597656 334.558594 206.296875 C 347.789062 206.113281 358.628906 189.535156 354.898438 177.195312 " fill-opacity="1" fill-rule="nonzero"/></g><path fill="#000000" d="M 346.300781 180.921875 C 346.71875 182.035156 345.925781 183.4375 345.261719 184.394531 C 344.773438 184.894531 344.007812 185.144531 343.335938 184.933594 C 342.078125 184.742188 342.539062 183.367188 342.71875 182.503906 C 343.226562 180.722656 344.976562 179.921875 346.71875 179.980469 C 346.71875 180.105469 346.625 180.882812 346.824219 180.480469 C 348.257812 179.175781 346.109375 178.332031 344.953125 178.203125 C 339.339844 178.242188 336.855469 187.78125 343.734375 188.222656 C 343.832031 188.234375 343.925781 188.234375 344.023438 188.234375 C 346.472656 188.234375 348.324219 185.765625 347.785156 183.367188 C 347.660156 182.417969 347.332031 181.238281 346.300781 180.921875 " fill-opacity="1" fill-rule="nonzero"/></svg>